<svg xmlns="http://www.w3.org/2000/svg" xmlns:xlink="http://www.w3.org/1999/xlink" width="383" zoomAndPan="magnify" viewBox="0 0 287.25 89.999999" height="120" preserveAspectRatio="xMidYMid meet" version="1.0"><defs><g/><clipPath id="4ddb892b2c"><path d="M 0.0078125 0.574219 L 27 0.574219 L 27 75 L 0.0078125 75 Z M 0.0078125 0.574219 " clip-rule="nonzero"/></clipPath><clipPath id="e41c7e7b6a"><path d="M 30 15 L 57 15 L 57 89.59375 L 30 89.59375 Z M 30 15 " clip-rule="nonzero"/></clipPath><clipPath id="5ee53eebbf"><path d="M 65 3 L 70.324219 3 L 70.324219 9 L 65 9 Z M 65 3 " clip-rule="nonzero"/></clipPath></defs><g clip-path="url(#4ddb892b2c)"><path fill="#0070f0" d="M 0.0273438 42.386719 L 0.0273438 33.105469 C 1.910156 33 3.328125 32.71875 4.28125 32.253906 C 5.234375 31.789062 6.0625 31.011719 6.757812 29.914062 C 7.453125 28.816406 7.929688 27.445312 8.1875 25.792969 C 8.394531 24.554688 8.496094 22.402344 8.496094 19.335938 C 8.496094 14.332031 8.730469 10.84375 9.195312 8.871094 C 9.65625 6.902344 10.496094 5.3125 11.707031 4.117188 C 12.917969 2.917969 14.6875 1.96875 17.007812 1.273438 C 18.578125 0.808594 21.054688 0.578125 24.433594 0.578125 L 26.480469 0.578125 L 26.480469 9.820312 C 23.621094 9.820312 21.78125 9.980469 20.972656 10.304688 C 20.160156 10.628906 19.558594 11.117188 19.171875 11.773438 C 18.785156 12.429688 18.59375 13.558594 18.59375 15.15625 C 18.59375 16.78125 18.476562 19.863281 18.242188 24.402344 C 18.113281 26.953125 17.78125 29.023438 17.238281 30.609375 C 16.695312 32.195312 16.007812 33.503906 15.167969 34.535156 C 14.332031 35.566406 13.046875 36.636719 11.320312 37.746094 C 12.84375 38.621094 14.085938 39.648438 15.054688 40.820312 C 16.019531 41.992188 16.761719 43.417969 17.277344 45.09375 C 17.792969 46.769531 18.128906 49.011719 18.28125 51.824219 C 18.460938 56.105469 18.554688 58.835938 18.554688 60.023438 C 18.554688 61.726562 18.757812 62.910156 19.171875 63.582031 C 19.585938 64.25 20.210938 64.761719 21.046875 65.109375 C 21.886719 65.457031 23.699219 65.632812 26.480469 65.632812 L 26.480469 74.914062 L 24.433594 74.914062 C 20.953125 74.914062 18.28125 74.636719 16.425781 74.082031 C 14.570312 73.527344 13.003906 72.605469 11.726562 71.316406 C 10.449219 70.027344 9.59375 68.433594 9.15625 66.539062 C 8.714844 64.644531 8.496094 61.660156 8.496094 57.585938 C 8.496094 52.84375 8.289062 49.761719 7.878906 48.34375 C 7.3125 46.28125 6.453125 44.804688 5.304688 43.914062 C 4.160156 43.023438 2.398438 42.515625 0.0273438 42.386719 " fill-opacity="1" fill-rule="nonzero"/></g><path fill="#fde047" d="M 58.703125 19.832031 L 52.648438 19.832031 L 52.648438 13.78125 L 58.703125 13.78125 L 58.703125 19.832031 " fill-opacity="1" fill-rule="nonzero"/><path fill="#fde047" d="M 57.273438 31.941406 L 52.648438 31.941406 L 52.648438 27.316406 L 57.273438 27.316406 L 57.273438 31.941406 " fill-opacity="1" fill-rule="nonzero"/><g clip-path="url(#e41c7e7b6a)"><path fill="#fde047" d="M 39.664062 24.460938 L 39.664062 19.832031 L 44.289062 19.832031 L 44.289062 24.460938 Z M 51.429688 46.082031 C 50.269531 45.191406 49.40625 43.71875 48.835938 41.65625 C 48.527344 40.492188 48.339844 38.261719 48.28125 34.96875 L 44.289062 34.96875 L 44.289062 28.914062 L 48.191406 28.914062 C 48.09375 26.578125 47.890625 24.761719 47.582031 23.457031 C 47.128906 21.5625 46.273438 19.964844 45.007812 18.660156 C 43.746094 17.359375 42.183594 16.4375 40.328125 15.894531 C 38.472656 15.355469 35.804688 15.082031 32.324219 15.082031 L 30.273438 15.082031 L 30.273438 24.328125 C 33.1875 24.328125 35.0625 24.5 35.898438 24.847656 C 36.738281 25.199219 37.316406 25.695312 37.640625 26.339844 C 37.960938 26.984375 38.136719 28.273438 38.164062 30.207031 C 38.292969 36.34375 38.496094 40.3125 38.78125 42.117188 C 39.21875 44.75 40.042969 46.914062 41.257812 48.617188 C 42.132812 49.800781 43.527344 51.015625 45.433594 52.25 C 43.964844 53.101562 42.757812 54.089844 41.816406 55.210938 C 40.875 56.332031 40.121094 57.699219 39.554688 59.308594 C 38.988281 60.921875 38.640625 63.070312 38.511719 65.75 C 38.304688 70.183594 38.195312 73.1875 38.183594 74.761719 C 38.167969 76.335938 37.960938 77.449219 37.5625 78.105469 C 37.164062 78.765625 36.539062 79.265625 35.6875 79.617188 C 34.835938 79.964844 33.03125 80.136719 30.273438 80.136719 L 30.273438 89.421875 L 32.324219 89.421875 C 35.699219 89.421875 38.175781 89.1875 39.75 88.722656 C 42.09375 88.027344 43.875 87.082031 45.085938 85.882812 C 46.296875 84.683594 47.128906 83.089844 47.582031 81.105469 C 48.03125 79.117188 48.257812 75.625 48.257812 70.621094 C 48.257812 67.582031 48.359375 65.441406 48.566406 64.203125 C 48.851562 62.554688 49.335938 61.179688 50.015625 60.082031 C 50.699219 58.988281 51.519531 58.207031 52.472656 57.746094 C 53.425781 57.28125 54.84375 56.996094 56.726562 56.894531 L 56.726562 47.609375 C 54.355469 47.480469 52.589844 46.972656 51.429688 46.082031 " fill-opacity="1" fill-rule="nonzero"/></g><g clip-path="url(#5ee53eebbf)"><path fill="#fde047" d="M 70.507812 8.078125 L 65.882812 8.078125 L 65.882812 3.449219 L 70.507812 3.449219 L 70.507812 8.078125 " fill-opacity="1" fill-rule="nonzero"/></g><path fill="#fde047" d="M 47.316406 13.78125 L 38.683594 13.78125 L 38.683594 5.144531 L 47.316406 5.144531 L 47.316406 13.78125 " fill-opacity="1" fill-rule="nonzero"/><g fill="#ffffff" fill-opacity="1"><g transform="translate(71.093525, 55.472655)"><g><path d="M 8.953125 0 L 14.515625 0 L 14.515625 -23.648438 L 22.613281 -23.648438 L 22.613281 -28.535156 L 0.714844 -28.535156 L 0.714844 -23.648438 L 8.953125 -23.648438 Z M 8.953125 0 "/></g></g></g><g fill="#ffffff" fill-opacity="1"><g transform="translate(94.415645, 55.472655)"><g><path d="M 13.375 0.390625 C 19.332031 0.390625 23.613281 -2.925781 25.179688 -8.0625 L 19.332031 -8.0625 C 18.296875 -5.8125 15.90625 -4.53125 13.445312 -4.53125 C 10.414062 -4.53125 7.597656 -6.527344 7.203125 -9.773438 L 25.574219 -9.773438 C 26.429688 -17.371094 21.398438 -23.574219 13.519531 -23.574219 C 6.492188 -23.574219 1.425781 -18.726562 1.425781 -11.519531 C 1.425781 -4.457031 6.3125 0.390625 13.375 0.390625 Z M 7.453125 -14.054688 C 8.308594 -16.90625 10.664062 -18.652344 13.589844 -18.652344 C 16.476562 -18.652344 18.761719 -16.871094 19.652344 -14.089844 Z M 7.453125 -14.054688 "/></g></g></g><g fill="#ffffff" fill-opacity="1"><g transform="translate(121.517801, 55.472655)"><g><path d="M 13.410156 0.390625 C 19.652344 0.390625 24.21875 -3.316406 25.394531 -9.023438 L 19.617188 -9.023438 C 18.6875 -6.242188 16.371094 -4.636719 13.480469 -4.636719 C 9.878906 -4.636719 7.132812 -7.417969 7.132812 -11.589844 C 7.132812 -15.730469 9.84375 -18.546875 13.480469 -18.546875 C 16.550781 -18.546875 18.976562 -16.476562 19.722656 -13.445312 L 25.5 -13.445312 C 24.503906 -19.472656 19.832031 -23.574219 13.445312 -23.574219 C 6.457031 -23.574219 1.425781 -18.726562 1.425781 -11.589844 C 1.425781 -4.421875 6.492188 0.390625 13.410156 0.390625 Z M 13.410156 0.390625 "/></g></g></g><g fill="#ffffff" fill-opacity="1"><g transform="translate(148.441655, 55.472655)"><g><path d="M 2.851562 0 L 8.417969 0 L 8.417969 -28.535156 L 2.851562 -28.535156 Z M 2.851562 0 "/></g></g></g><g fill="#ffffff" fill-opacity="1"><g transform="translate(159.710446, 55.472655)"><g><path d="M 13.375 0.390625 C 19.332031 0.390625 23.613281 -2.925781 25.179688 -8.0625 L 19.332031 -8.0625 C 18.296875 -5.8125 15.90625 -4.53125 13.445312 -4.53125 C 10.414062 -4.53125 7.597656 -6.527344 7.203125 -9.773438 L 25.574219 -9.773438 C 26.429688 -17.371094 21.398438 -23.574219 13.519531 -23.574219 C 6.492188 -23.574219 1.425781 -18.726562 1.425781 -11.519531 C 1.425781 -4.457031 6.3125 0.390625 13.375 0.390625 Z M 7.453125 -14.054688 C 8.308594 -16.90625 10.664062 -18.652344 13.589844 -18.652344 C 16.476562 -18.652344 18.761719 -16.871094 19.652344 -14.089844 Z M 7.453125 -14.054688 "/></g></g></g><g fill="#ffffff" fill-opacity="1"><g transform="translate(186.812602, 55.472655)"><g><path d="M 12.519531 0.390625 C 15.621094 0.390625 18.191406 -0.820312 19.9375 -2.925781 L 19.9375 0 L 25.429688 0 L 25.429688 -23.183594 L 19.9375 -23.183594 L 19.9375 -20.292969 C 18.191406 -22.363281 15.621094 -23.574219 12.519531 -23.574219 C 6.242188 -23.574219 1.425781 -18.761719 1.425781 -11.628906 C 1.425781 -4.457031 6.242188 0.390625 12.519531 0.390625 Z M 7.097656 -11.628906 C 7.097656 -15.765625 9.773438 -18.511719 13.554688 -18.511719 C 17.335938 -18.511719 20.007812 -15.765625 20.007812 -11.628906 C 20.007812 -7.453125 17.335938 -4.671875 13.554688 -4.671875 C 9.773438 -4.671875 7.097656 -7.453125 7.097656 -11.628906 Z M 7.097656 -11.628906 "/></g></g></g><g fill="#ffffff" fill-opacity="1"><g transform="translate(215.09156, 55.472655)"><g><path d="M 2.851562 0 L 8.417969 0 L 8.417969 -12.054688 C 8.417969 -15.621094 10.664062 -17.941406 14.125 -17.941406 L 14.125 -23.574219 C 10.914062 -23.363281 8.953125 -21.1875 8.347656 -19.867188 L 8.347656 -23.183594 L 2.851562 -23.183594 Z M 2.851562 0 "/></g></g></g><g fill="#ffffff" fill-opacity="1"><g transform="translate(229.926426, 55.472655)"><g><path d="M 2.851562 0 L 8.417969 0 L 8.417969 -28.535156 L 2.851562 -28.535156 Z M 2.851562 0 "/></g></g></g><g fill="#ffffff" fill-opacity="1"><g transform="translate(241.195217, 55.472655)"><g><path d="M 12.519531 0.390625 C 15.621094 0.390625 18.191406 -0.820312 19.9375 -2.925781 L 19.9375 0 L 25.429688 0 L 25.429688 -23.183594 L 19.9375 -23.183594 L 19.9375 -20.292969 C 18.191406 -22.363281 15.621094 -23.574219 12.519531 -23.574219 C 6.242188 -23.574219 1.425781 -18.761719 1.425781 -11.628906 C 1.425781 -4.457031 6.242188 0.390625 12.519531 0.390625 Z M 7.097656 -11.628906 C 7.097656 -15.765625 9.773438 -18.511719 13.554688 -18.511719 C 17.335938 -18.511719 20.007812 -15.765625 20.007812 -11.628906 C 20.007812 -7.453125 17.335938 -4.671875 13.554688 -4.671875 C 9.773438 -4.671875 7.097656 -7.453125 7.097656 -11.628906 Z M 7.097656 -11.628906 "/></g></g></g></svg>