<svg xmlns="http://www.w3.org/2000/svg" xmlns:xlink="http://www.w3.org/1999/xlink" width="321" zoomAndPan="magnify" viewBox="0 0 240.75 156.749997" height="209" preserveAspectRatio="xMidYMid meet" version="1.0"><defs><g/><clipPath id="d369696b59"><path d="M 85.082031 0.078125 L 112 0.078125 L 112 75 L 85.082031 75 Z M 85.082031 0.078125 " clip-rule="nonzero"/></clipPath><clipPath id="0e3fb58a6e"><path d="M 115 14 L 142 14 L 142 89.1875 L 115 89.1875 Z M 115 14 " clip-rule="nonzero"/></clipPath><clipPath id="f56ed7a356"><path d="M 151 2 L 155.46875 2 L 155.46875 8 L 151 8 Z M 151 2 " clip-rule="nonzero"/></clipPath></defs><g clip-path="url(#d369696b59)"><path fill="#0070f0" d="M 85.101562 41.933594 L 85.101562 32.640625 C 86.984375 32.539062 88.40625 32.253906 89.359375 31.789062 C 90.316406 31.324219 91.140625 30.546875 91.839844 29.449219 C 92.535156 28.351562 93.011719 26.976562 93.273438 25.324219 C 93.476562 24.085938 93.582031 21.929688 93.582031 18.859375 C 93.582031 13.851562 93.8125 10.359375 94.277344 8.386719 C 94.742188 6.410156 95.582031 4.824219 96.792969 3.625 C 98.007812 2.421875 99.777344 1.476562 102.097656 0.777344 C 103.671875 0.3125 106.152344 0.0820312 109.53125 0.0820312 L 111.585938 0.0820312 L 111.585938 9.335938 C 108.71875 9.335938 106.878906 9.496094 106.066406 9.816406 C 105.253906 10.140625 104.652344 10.628906 104.265625 11.289062 C 103.878906 11.949219 103.6875 13.078125 103.6875 14.675781 C 103.6875 16.304688 103.570312 19.386719 103.335938 23.929688 C 103.207031 26.484375 102.875 28.558594 102.332031 30.144531 C 101.789062 31.730469 101.097656 33.042969 100.257812 34.074219 C 99.421875 35.105469 98.136719 36.179688 96.40625 37.289062 C 97.929688 38.164062 99.175781 39.191406 100.144531 40.367188 C 101.113281 41.539062 101.851562 42.964844 102.371094 44.644531 C 102.886719 46.320312 103.222656 48.566406 103.375 51.378906 C 103.558594 55.664062 103.648438 58.402344 103.648438 59.589844 C 103.648438 61.292969 103.855469 62.476562 104.265625 63.148438 C 104.679688 63.820312 105.304688 64.332031 106.144531 64.679688 C 106.984375 65.027344 108.796875 65.203125 111.585938 65.203125 L 111.585938 74.492188 L 109.53125 74.492188 C 106.046875 74.492188 103.375 74.214844 101.519531 73.660156 C 99.660156 73.105469 98.09375 72.183594 96.8125 70.894531 C 95.535156 69.601562 94.679688 68.007812 94.238281 66.109375 C 93.800781 64.214844 93.582031 61.226562 93.582031 57.148438 C 93.582031 52.398438 93.375 49.316406 92.960938 47.894531 C 92.394531 45.832031 91.535156 44.351562 90.386719 43.460938 C 89.238281 42.570312 87.476562 42.0625 85.101562 41.933594 " fill-opacity="1" fill-rule="nonzero"/></g><path fill="#fde047" d="M 143.839844 19.359375 L 137.777344 19.359375 L 137.777344 13.296875 L 143.839844 13.296875 L 143.839844 19.359375 " fill-opacity="1" fill-rule="nonzero"/><path fill="#fde047" d="M 142.410156 31.476562 L 137.777344 31.476562 L 137.777344 26.847656 L 142.410156 26.847656 L 142.410156 31.476562 " fill-opacity="1" fill-rule="nonzero"/><g clip-path="url(#0e3fb58a6e)"><path fill="#fde047" d="M 124.78125 23.988281 L 124.78125 19.359375 L 129.410156 19.359375 L 129.410156 23.988281 Z M 136.554688 45.632812 C 135.394531 44.742188 134.53125 43.265625 133.960938 41.199219 C 133.648438 40.035156 133.464844 37.804688 133.402344 34.507812 L 129.410156 34.507812 L 129.410156 28.445312 L 133.316406 28.445312 C 133.21875 26.109375 133.015625 24.289062 132.703125 22.984375 C 132.253906 21.085938 131.394531 19.488281 130.128906 18.183594 C 128.863281 16.882812 127.304688 15.957031 125.445312 15.414062 C 123.585938 14.875 120.914062 14.601562 117.429688 14.601562 L 115.378906 14.601562 L 115.378906 23.855469 C 118.296875 23.855469 120.171875 24.03125 121.011719 24.378906 C 121.851562 24.726562 122.429688 25.222656 122.753906 25.867188 C 123.078125 26.515625 123.25 27.804688 123.277344 29.742188 C 123.40625 35.882812 123.613281 39.859375 123.894531 41.664062 C 124.335938 44.296875 125.160156 46.464844 126.375 48.167969 C 127.25 49.355469 128.644531 50.570312 130.554688 51.808594 C 129.085938 52.660156 127.875 53.648438 126.933594 54.769531 C 125.992188 55.894531 125.238281 57.261719 124.671875 58.875 C 124.101562 60.488281 123.753906 62.636719 123.625 65.320312 C 123.417969 69.761719 123.308594 72.765625 123.296875 74.339844 C 123.28125 75.914062 123.078125 77.03125 122.675781 77.691406 C 122.277344 78.347656 121.652344 78.851562 120.796875 79.199219 C 119.945312 79.550781 118.140625 79.722656 115.378906 79.722656 L 115.378906 89.015625 L 117.429688 89.015625 C 120.8125 89.015625 123.289062 88.78125 124.863281 88.316406 C 127.210938 87.621094 128.992188 86.671875 130.207031 85.472656 C 131.417969 84.273438 132.253906 82.679688 132.703125 80.691406 C 133.15625 78.703125 133.382812 75.207031 133.382812 70.199219 C 133.382812 67.152344 133.484375 65.011719 133.691406 63.773438 C 133.976562 62.121094 134.460938 60.746094 135.144531 59.648438 C 135.828125 58.550781 136.644531 57.769531 137.601562 57.308594 C 138.554688 56.839844 139.976562 56.558594 141.859375 56.453125 L 141.859375 47.164062 C 139.484375 47.035156 137.71875 46.523438 136.554688 45.632812 " fill-opacity="1" fill-rule="nonzero"/></g><g clip-path="url(#f56ed7a356)"><path fill="#fde047" d="M 155.652344 7.589844 L 151.023438 7.589844 L 151.023438 2.957031 L 155.652344 2.957031 L 155.652344 7.589844 " fill-opacity="1" fill-rule="nonzero"/></g><path fill="#fde047" d="M 132.4375 13.296875 L 123.796875 13.296875 L 123.796875 4.65625 L 132.4375 4.65625 L 132.4375 13.296875 " fill-opacity="1" fill-rule="nonzero"/><g fill="#ffffff" fill-opacity="1"><g transform="translate(21.085917, 129.63779)"><g><path d="M 8.960938 0 L 14.53125 0 L 14.53125 -23.671875 L 22.636719 -23.671875 L 22.636719 -28.5625 L 0.714844 -28.5625 L 0.714844 -23.671875 L 8.960938 -23.671875 Z M 8.960938 0 "/></g></g></g><g fill="#ffffff" fill-opacity="1"><g transform="translate(44.431696, 129.63779)"><g><path d="M 13.386719 0.394531 C 19.351562 0.394531 23.636719 -2.925781 25.207031 -8.070312 L 19.351562 -8.070312 C 18.316406 -5.820312 15.921875 -4.535156 13.460938 -4.535156 C 10.425781 -4.535156 7.605469 -6.535156 7.210938 -9.78125 L 25.597656 -9.78125 C 26.457031 -17.386719 21.421875 -23.601562 13.53125 -23.601562 C 6.496094 -23.601562 1.429688 -18.742188 1.429688 -11.53125 C 1.429688 -4.460938 6.320312 0.394531 13.386719 0.394531 Z M 7.460938 -14.066406 C 8.320312 -16.921875 10.675781 -18.671875 13.601562 -18.671875 C 16.496094 -18.671875 18.78125 -16.886719 19.671875 -14.101562 Z M 7.460938 -14.066406 "/></g></g></g><g fill="#ffffff" fill-opacity="1"><g transform="translate(71.561346, 129.63779)"><g><path d="M 13.425781 0.394531 C 19.671875 0.394531 24.242188 -3.320312 25.421875 -9.03125 L 19.636719 -9.03125 C 18.707031 -6.246094 16.386719 -4.640625 13.496094 -4.640625 C 9.890625 -4.640625 7.140625 -7.425781 7.140625 -11.601562 C 7.140625 -15.746094 9.855469 -18.566406 13.496094 -18.566406 C 16.566406 -18.566406 18.992188 -16.496094 19.742188 -13.460938 L 25.527344 -13.460938 C 24.527344 -19.492188 19.851562 -23.601562 13.460938 -23.601562 C 6.460938 -23.601562 1.429688 -18.742188 1.429688 -11.601562 C 1.429688 -4.425781 6.496094 0.394531 13.425781 0.394531 Z M 13.425781 0.394531 "/></g></g></g><g fill="#ffffff" fill-opacity="1"><g transform="translate(98.512512, 129.63779)"><g><path d="M 2.855469 0 L 8.425781 0 L 8.425781 -28.5625 L 2.855469 -28.5625 Z M 2.855469 0 "/></g></g></g><g fill="#ffffff" fill-opacity="1"><g transform="translate(109.792735, 129.63779)"><g><path d="M 13.386719 0.394531 C 19.351562 0.394531 23.636719 -2.925781 25.207031 -8.070312 L 19.351562 -8.070312 C 18.316406 -5.820312 15.921875 -4.535156 13.460938 -4.535156 C 10.425781 -4.535156 7.605469 -6.535156 7.210938 -9.78125 L 25.597656 -9.78125 C 26.457031 -17.386719 21.421875 -23.601562 13.53125 -23.601562 C 6.496094 -23.601562 1.429688 -18.742188 1.429688 -11.53125 C 1.429688 -4.460938 6.320312 0.394531 13.386719 0.394531 Z M 7.460938 -14.066406 C 8.320312 -16.921875 10.675781 -18.671875 13.601562 -18.671875 C 16.496094 -18.671875 18.78125 -16.886719 19.671875 -14.101562 Z M 7.460938 -14.066406 "/></g></g></g><g fill="#ffffff" fill-opacity="1"><g transform="translate(136.922384, 129.63779)"><g><path d="M 12.53125 0.394531 C 15.636719 0.394531 18.207031 -0.820312 19.957031 -2.925781 L 19.957031 0 L 25.457031 0 L 25.457031 -23.207031 L 19.957031 -23.207031 L 19.957031 -20.316406 C 18.207031 -22.386719 15.636719 -23.601562 12.53125 -23.601562 C 6.246094 -23.601562 1.429688 -18.78125 1.429688 -11.640625 C 1.429688 -4.460938 6.246094 0.394531 12.53125 0.394531 Z M 7.105469 -11.640625 C 7.105469 -15.78125 9.78125 -18.53125 13.566406 -18.53125 C 17.351562 -18.53125 20.03125 -15.78125 20.03125 -11.640625 C 20.03125 -7.460938 17.351562 -4.675781 13.566406 -4.675781 C 9.78125 -4.675781 7.105469 -7.460938 7.105469 -11.640625 Z M 7.105469 -11.640625 "/></g></g></g><g fill="#ffffff" fill-opacity="1"><g transform="translate(165.230029, 129.63779)"><g><path d="M 2.855469 0 L 8.425781 0 L 8.425781 -12.066406 C 8.425781 -15.636719 10.675781 -17.957031 14.136719 -17.957031 L 14.136719 -23.601562 C 10.925781 -23.386719 8.960938 -21.207031 8.355469 -19.886719 L 8.355469 -23.207031 L 2.855469 -23.207031 Z M 2.855469 0 "/></g></g></g><g fill="#ffffff" fill-opacity="1"><g transform="translate(180.079944, 129.63779)"><g><path d="M 2.855469 0 L 8.425781 0 L 8.425781 -28.5625 L 2.855469 -28.5625 Z M 2.855469 0 "/></g></g></g><g fill="#ffffff" fill-opacity="1"><g transform="translate(191.360167, 129.63779)"><g><path d="M 12.53125 0.394531 C 15.636719 0.394531 18.207031 -0.820312 19.957031 -2.925781 L 19.957031 0 L 25.457031 0 L 25.457031 -23.207031 L 19.957031 -23.207031 L 19.957031 -20.316406 C 18.207031 -22.386719 15.636719 -23.601562 12.53125 -23.601562 C 6.246094 -23.601562 1.429688 -18.78125 1.429688 -11.640625 C 1.429688 -4.460938 6.246094 0.394531 12.53125 0.394531 Z M 7.105469 -11.640625 C 7.105469 -15.78125 9.78125 -18.53125 13.566406 -18.53125 C 17.351562 -18.53125 20.03125 -15.78125 20.03125 -11.640625 C 20.03125 -7.460938 17.351562 -4.675781 13.566406 -4.675781 C 9.78125 -4.675781 7.105469 -7.460938 7.105469 -11.640625 Z M 7.105469 -11.640625 "/></g></g></g></svg>