<?xml version="1.0" encoding="utf-8"?>
<svg viewBox="0.0273 0.582 70.2852 88.832" xmlns="http://www.w3.org/2000/svg">
  <defs>
    <clipPath id="eb77e69879">
      <path d="M 0.0078125 0.582031 L 27 0.582031 L 27 75 L 0.0078125 75 Z M 0.0078125 0.582031 " clip-rule="nonzero"/>
    </clipPath>
    <clipPath id="8f0dc9c1dd">
      <path d="M 30 15 L 57 15 L 57 89.585938 L 30 89.585938 Z M 30 15 " clip-rule="nonzero"/>
    </clipPath>
    <clipPath id="696a100c72">
      <path d="M 65 3 L 70.3125 3 L 70.3125 9 L 65 9 Z M 65 3 " clip-rule="nonzero"/>
    </clipPath>
  </defs>
  <g clip-path="url(#eb77e69879)">
    <path fill="#0070f0" d="M 0.0273438 42.386719 L 0.0273438 33.105469 C 1.910156 33.003906 3.328125 32.71875 4.28125 32.253906 C 5.234375 31.789062 6.058594 31.011719 6.757812 29.914062 C 7.453125 28.820312 7.929688 27.449219 8.1875 25.796875 C 8.394531 24.558594 8.496094 22.40625 8.496094 19.339844 C 8.496094 14.335938 8.726562 10.851562 9.191406 8.878906 C 9.65625 6.90625 10.492188 5.320312 11.707031 4.121094 C 12.917969 2.921875 14.683594 1.976562 17.003906 1.28125 C 18.574219 0.816406 21.050781 0.582031 24.429688 0.582031 L 26.476562 0.582031 L 26.476562 9.828125 C 23.617188 9.828125 21.78125 9.988281 20.96875 10.308594 C 20.15625 10.632812 19.554688 11.121094 19.167969 11.777344 C 18.78125 12.4375 18.589844 13.5625 18.589844 15.164062 C 18.589844 16.785156 18.472656 19.867188 18.242188 24.40625 C 18.113281 26.957031 17.777344 29.027344 17.234375 30.613281 C 16.695312 32.195312 16.003906 33.503906 15.167969 34.535156 C 14.328125 35.566406 13.046875 36.636719 11.320312 37.746094 C 12.839844 38.625 14.085938 39.648438 15.050781 40.820312 C 16.019531 41.992188 16.757812 43.417969 17.273438 45.09375 C 17.789062 46.769531 18.125 49.011719 18.28125 51.824219 C 18.460938 56.101562 18.550781 58.835938 18.550781 60.019531 C 18.550781 61.722656 18.757812 62.90625 19.167969 63.578125 C 19.582031 64.25 20.207031 64.757812 21.046875 65.105469 C 21.882812 65.453125 23.695312 65.628906 26.476562 65.628906 L 26.476562 74.910156 L 24.429688 74.910156 C 20.949219 74.910156 18.28125 74.632812 16.421875 74.078125 C 14.566406 73.523438 13 72.601562 11.726562 71.3125 C 10.449219 70.023438 9.589844 68.429688 9.152344 66.535156 C 8.714844 64.640625 8.496094 61.65625 8.496094 57.585938 C 8.496094 52.84375 8.289062 49.761719 7.878906 48.34375 C 7.308594 46.28125 6.453125 44.804688 5.304688 43.914062 C 4.160156 43.023438 2.398438 42.515625 0.0273438 42.386719 " fill-opacity="1" fill-rule="nonzero"/>
  </g>
  <path fill="#fde047" d="M 58.695312 19.835938 L 52.644531 19.835938 L 52.644531 13.785156 L 58.695312 13.785156 L 58.695312 19.835938 " fill-opacity="1" fill-rule="nonzero"/>
  <path fill="#fde047" d="M 57.265625 31.941406 L 52.644531 31.941406 L 52.644531 27.316406 L 57.265625 27.316406 L 57.265625 31.941406 " fill-opacity="1" fill-rule="nonzero"/>
  <g clip-path="url(#8f0dc9c1dd)">
    <path fill="#fde047" d="M 39.660156 24.460938 L 39.660156 19.835938 L 44.28125 19.835938 L 44.28125 24.460938 Z M 51.421875 46.082031 C 50.261719 45.191406 49.398438 43.71875 48.832031 41.65625 C 48.519531 40.492188 48.332031 38.261719 48.273438 34.96875 L 44.28125 34.96875 L 44.28125 28.914062 L 48.183594 28.914062 C 48.085938 26.582031 47.882812 24.761719 47.574219 23.460938 C 47.121094 21.566406 46.265625 19.964844 45.003906 18.664062 C 43.738281 17.363281 42.179688 16.441406 40.324219 15.898438 C 38.464844 15.359375 35.800781 15.089844 32.316406 15.089844 L 30.269531 15.089844 L 30.269531 24.328125 C 33.179688 24.328125 35.058594 24.503906 35.894531 24.851562 C 36.734375 25.199219 37.3125 25.695312 37.636719 26.339844 C 37.957031 26.984375 38.132812 28.273438 38.15625 30.207031 C 38.285156 36.34375 38.492188 40.3125 38.777344 42.117188 C 39.214844 44.75 40.039062 46.914062 41.25 48.617188 C 42.128906 49.800781 43.519531 51.011719 45.429688 52.25 C 43.957031 53.101562 42.753906 54.085938 41.8125 55.210938 C 40.871094 56.332031 40.117188 57.695312 39.550781 59.308594 C 38.984375 60.917969 38.632812 63.066406 38.503906 65.746094 C 38.296875 70.179688 38.1875 73.183594 38.175781 74.757812 C 38.164062 76.328125 37.957031 77.445312 37.558594 78.101562 C 37.15625 78.761719 36.535156 79.261719 35.683594 79.609375 C 34.832031 79.957031 33.027344 80.132812 30.269531 80.132812 L 30.269531 89.414062 L 32.316406 89.414062 C 35.695312 89.414062 38.171875 89.179688 39.742188 88.71875 C 42.089844 88.019531 43.867188 87.074219 45.082031 85.875 C 46.292969 84.675781 47.121094 83.085938 47.574219 81.097656 C 48.023438 79.113281 48.25 75.621094 48.25 70.617188 C 48.25 67.578125 48.351562 65.4375 48.558594 64.199219 C 48.84375 62.550781 49.328125 61.175781 50.011719 60.082031 C 50.691406 58.984375 51.511719 58.207031 52.464844 57.742188 C 53.417969 57.277344 54.835938 56.996094 56.71875 56.890625 L 56.71875 47.609375 C 54.347656 47.480469 52.582031 46.972656 51.421875 46.082031 " fill-opacity="1" fill-rule="nonzero"/>
  </g>
  <g clip-path="url(#696a100c72)">
    <path fill="#fde047" d="M 70.496094 8.082031 L 65.871094 8.082031 L 65.871094 3.457031 L 70.496094 3.457031 L 70.496094 8.082031 " fill-opacity="1" fill-rule="nonzero"/>
  </g>
  <path fill="#fde047" d="M 47.308594 13.785156 L 38.675781 13.785156 L 38.675781 5.152344 L 47.308594 5.152344 L 47.308594 13.785156 " fill-opacity="1" fill-rule="nonzero"/>
</svg>