<svg xmlns="http://www.w3.org/2000/svg" xmlns:xlink="http://www.w3.org/1999/xlink" width="50" zoomAndPan="magnify" viewBox="0 0 37.5 37.499999" height="50" preserveAspectRatio="xMidYMid meet" version="1.0"><defs><clipPath id="11f2a6ca3e"><path d="M 0 0 L 37.007812 0 L 37.007812 37.007812 L 0 37.007812 Z M 0 0 " clip-rule="nonzero"/></clipPath><clipPath id="5dfaf9130b"><path d="M 5.609375 2.257812 L 16 2.257812 L 16 30 L 5.609375 30 Z M 5.609375 2.257812 " clip-rule="nonzero"/></clipPath><clipPath id="81d8d40183"><path d="M 16 7 L 27 7 L 27 34.824219 L 16 34.824219 Z M 16 7 " clip-rule="nonzero"/></clipPath><clipPath id="f6e591179f"><path d="M 29 3 L 31.511719 3 L 31.511719 5 L 29 5 Z M 29 3 " clip-rule="nonzero"/></clipPath></defs><g clip-path="url(#11f2a6ca3e)"><path fill="#ffffff" d="M 0 0 L 37.007812 0 L 37.007812 37.007812 L 0 37.007812 Z M 0 0 " fill-opacity="1" fill-rule="nonzero"/><path fill="#1a2530" d="M 0 0 L 37.007812 0 L 37.007812 37.007812 L 0 37.007812 Z M 0 0 " fill-opacity="1" fill-rule="nonzero"/></g><g clip-path="url(#5dfaf9130b)"><path fill="#0070f0" d="M 5.617188 17.546875 L 5.617188 14.152344 C 6.308594 14.113281 6.824219 14.011719 7.175781 13.839844 C 7.523438 13.671875 7.824219 13.386719 8.078125 12.984375 C 8.335938 12.585938 8.507812 12.082031 8.601562 11.480469 C 8.679688 11.027344 8.714844 10.238281 8.714844 9.117188 C 8.714844 7.289062 8.800781 6.011719 8.96875 5.292969 C 9.140625 4.570312 9.445312 3.992188 9.890625 3.554688 C 10.332031 3.113281 10.980469 2.769531 11.828125 2.511719 C 12.402344 2.34375 13.308594 2.257812 14.542969 2.257812 L 15.292969 2.257812 L 15.292969 5.640625 C 14.246094 5.640625 13.574219 5.699219 13.277344 5.816406 C 12.980469 5.933594 12.761719 6.113281 12.617188 6.351562 C 12.476562 6.59375 12.40625 7.007812 12.40625 7.589844 C 12.40625 8.183594 12.363281 9.3125 12.28125 10.96875 C 12.234375 11.902344 12.109375 12.660156 11.910156 13.238281 C 11.714844 13.820312 11.460938 14.296875 11.15625 14.675781 C 10.847656 15.054688 10.378906 15.445312 9.75 15.851562 C 10.304688 16.171875 10.757812 16.542969 11.113281 16.972656 C 11.464844 17.402344 11.738281 17.921875 11.925781 18.535156 C 12.113281 19.148438 12.238281 19.96875 12.292969 20.996094 C 12.359375 22.5625 12.394531 23.5625 12.394531 23.996094 C 12.394531 24.617188 12.46875 25.050781 12.617188 25.296875 C 12.769531 25.542969 13 25.726562 13.304688 25.855469 C 13.609375 25.980469 14.273438 26.046875 15.292969 26.046875 L 15.292969 29.441406 L 14.542969 29.441406 C 13.269531 29.441406 12.292969 29.339844 11.613281 29.136719 C 10.9375 28.933594 10.363281 28.597656 9.898438 28.125 C 9.429688 27.652344 9.117188 27.070312 8.957031 26.378906 C 8.796875 25.683594 8.714844 24.59375 8.714844 23.105469 C 8.714844 21.371094 8.640625 20.242188 8.488281 19.722656 C 8.28125 18.96875 7.96875 18.429688 7.550781 18.105469 C 7.128906 17.78125 6.484375 17.59375 5.617188 17.546875 " fill-opacity="1" fill-rule="nonzero"/></g><path fill="#fde047" d="M 27.074219 9.300781 L 24.859375 9.300781 L 24.859375 7.085938 L 27.074219 7.085938 L 27.074219 9.300781 " fill-opacity="1" fill-rule="nonzero"/><path fill="#fde047" d="M 26.550781 13.726562 L 24.859375 13.726562 L 24.859375 12.035156 L 26.550781 12.035156 L 26.550781 13.726562 " fill-opacity="1" fill-rule="nonzero"/><g clip-path="url(#81d8d40183)"><path fill="#fde047" d="M 20.113281 10.992188 L 20.113281 9.300781 L 21.804688 9.300781 L 21.804688 10.992188 Z M 24.414062 18.898438 C 23.988281 18.574219 23.671875 18.03125 23.464844 17.277344 C 23.351562 16.851562 23.285156 16.039062 23.261719 14.832031 L 21.804688 14.832031 L 21.804688 12.621094 L 23.230469 12.621094 C 23.195312 11.765625 23.121094 11.101562 23.007812 10.625 C 22.839844 9.933594 22.527344 9.347656 22.066406 8.871094 C 21.605469 8.394531 21.035156 8.058594 20.355469 7.859375 C 19.675781 7.660156 18.699219 7.5625 17.425781 7.5625 L 16.679688 7.5625 L 16.679688 10.941406 C 17.742188 10.941406 18.429688 11.007812 18.734375 11.132812 C 19.042969 11.261719 19.253906 11.441406 19.371094 11.679688 C 19.488281 11.914062 19.554688 12.386719 19.5625 13.09375 C 19.609375 15.335938 19.683594 16.789062 19.789062 17.449219 C 19.949219 18.410156 20.25 19.203125 20.695312 19.824219 C 21.015625 20.257812 21.523438 20.703125 22.222656 21.152344 C 21.683594 21.464844 21.242188 21.824219 20.898438 22.234375 C 20.554688 22.644531 20.28125 23.144531 20.070312 23.734375 C 19.863281 24.324219 19.738281 25.109375 19.691406 26.089844 C 19.613281 27.710938 19.574219 28.808594 19.570312 29.382812 C 19.566406 29.960938 19.488281 30.367188 19.34375 30.609375 C 19.199219 30.847656 18.96875 31.03125 18.65625 31.160156 C 18.347656 31.285156 17.6875 31.351562 16.679688 31.351562 L 16.679688 34.746094 L 17.425781 34.746094 C 18.664062 34.746094 19.566406 34.660156 20.144531 34.488281 C 21 34.234375 21.652344 33.890625 22.09375 33.449219 C 22.539062 33.011719 22.839844 32.429688 23.007812 31.703125 C 23.171875 30.976562 23.253906 29.699219 23.253906 27.871094 C 23.253906 26.757812 23.292969 25.976562 23.367188 25.523438 C 23.472656 24.921875 23.648438 24.417969 23.898438 24.015625 C 24.148438 23.617188 24.445312 23.332031 24.796875 23.160156 C 25.144531 22.992188 25.664062 22.886719 26.351562 22.851562 L 26.351562 19.457031 C 25.484375 19.410156 24.839844 19.222656 24.414062 18.898438 " fill-opacity="1" fill-rule="nonzero"/></g><g clip-path="url(#f6e591179f)"><path fill="#fde047" d="M 31.390625 5 L 29.699219 5 L 29.699219 3.308594 L 31.390625 3.308594 L 31.390625 5 " fill-opacity="1" fill-rule="nonzero"/></g><path fill="#fde047" d="M 22.910156 7.085938 L 19.753906 7.085938 L 19.753906 3.929688 L 22.910156 3.929688 L 22.910156 7.085938 " fill-opacity="1" fill-rule="nonzero"/></svg>